<?xml version="1.0" encoding="UTF-8" standalone="no"?>
<!-- Created with Inkscape (http://www.inkscape.org/) -->

<svg
   xmlns:dc="http://purl.org/dc/elements/1.1/"
   xmlns:cc="http://creativecommons.org/ns#"
   xmlns:rdf="http://www.w3.org/1999/02/22-rdf-syntax-ns#"
   xmlns:svg="http://www.w3.org/2000/svg"
   xmlns="http://www.w3.org/2000/svg"
   xmlns:xlink="http://www.w3.org/1999/xlink"
   xmlns:sodipodi="http://sodipodi.sourceforge.net/DTD/sodipodi-0.dtd"
   xmlns:inkscape="http://www.inkscape.org/namespaces/inkscape"
   width="744.09448819"
   height="1052.3622047"
   id="svg2"
   version="1.1"
   inkscape:version="0.48.2 r9819"
   sodipodi:docname="navi.svg">
  <defs
     id="defs4" />
  <sodipodi:namedview
     id="base"
     pagecolor="#ffffff"
     bordercolor="#666666"
     borderopacity="1.0"
     inkscape:pageopacity="0.0"
     inkscape:pageshadow="2"
     inkscape:zoom="0.47730858"
     inkscape:cx="1333.6236"
     inkscape:cy="18.227202"
     inkscape:document-units="px"
     inkscape:current-layer="layer1"
     showgrid="false"
     inkscape:window-width="1383"
     inkscape:window-height="856"
     inkscape:window-x="57"
     inkscape:window-y="0"
     inkscape:window-maximized="1" />
  <metadata
     id="metadata7">
    <rdf:RDF>
      <cc:Work
         rdf:about="">
        <dc:format>image/svg+xml</dc:format>
        <dc:type
           rdf:resource="http://purl.org/dc/dcmitype/StillImage" />
        <dc:title></dc:title>
      </cc:Work>
    </rdf:RDF>
  </metadata>
  <g
     inkscape:label="Layer 1"
     inkscape:groupmode="layer"
     id="layer1">
    <path
       sodipodi:type="arc"
       style="opacity:0.98999999;fill:#dedede;fill-opacity:1;stroke:#8a8089;stroke-width:12.97982025;stroke-linejoin:miter;stroke-miterlimit:4;stroke-opacity:1;stroke-dasharray:none;stroke-dashoffset:0"
       id="path3030"
       sodipodi:cx="187.06996"
       sodipodi:cy="323.48489"
       sodipodi:rx="173.89087"
       sodipodi:ry="167.30132"
       d="m 360.96083,323.48489 a 173.89087,167.30132 0 1 1 -347.781738,0 173.89087,167.30132 0 1 1 347.781738,0 z"
       transform="matrix(1.1079881,0,0,1.1516288,38.52833,-69.201247)" />
    <path
       style="opacity:0.98999999;fill:#616161;fill-opacity:1;stroke:none"
       d="m 269.45808,199.02842 -106.55401,110.58593 106.55401,110.58592 0,-46.45311 -61.18868,-64.13281 61.18868,-61.79901 z"
       id="rect3009"
       inkscape:connector-curvature="0"
       sodipodi:nodetypes="ccccccc" />
    <image
       y="610.53418"
       x="110.45008"
       id="image3086"
       xlink:href="file:///Users/gam0022/Dropbox/cojt/shelf/misc/navi_sample.png"
       height="619.51996"
       width="806.12238" />
    <path
       sodipodi:type="arc"
       style="opacity:1;fill:#c8c8c8;fill-opacity:1;stroke:#3c3c3c;stroke-width:22.15490042000000059;stroke-linejoin:miter;stroke-miterlimit:4;stroke-opacity:1;stroke-dasharray:none;stroke-dashoffset:0"
       id="path3089"
       sodipodi:cx="486.96719"
       sodipodi:cy="924.43817"
       sodipodi:rx="185.46602"
       sodipodi:ry="171.67496"
       d="m 672.43321,924.43817 a 185.46602,171.67496 0 1 1 -370.93204,0 185.46602,171.67496 0 1 1 370.93204,0 z"
       transform="matrix(0.86852334,0,0,0.9382939,51.509874,35.794107)"
       inkscape:export-filename="/Users/gam0022/Dropbox/cojt/shelf/misc/navi_left.png"
       inkscape:export-xdpi="33.740002"
       inkscape:export-ydpi="33.740002" />
    <path
       style="fill:#3c3c3c;stroke:none;stroke-width:1px;stroke-linecap:butt;stroke-linejoin:miter;stroke-opacity:1;fill-opacity:1"
       d="m 497.42938,825.99853 -62.77312,73.2353 62.77312,77.03973 0,-36.09168 -34.23989,-40.94805 34.23989,-39.14362 z"
       id="path3859"
       inkscape:connector-curvature="0"
       sodipodi:nodetypes="ccccccc" />
    <path
       inkscape:export-ydpi="16.870001"
       inkscape:export-xdpi="16.870001"
       inkscape:export-filename="/Users/gam0022/Dropbox/cojt/shelf/misc/navi_left.png"
       transform="matrix(0.86852334,0,0,0.9382939,677.31048,113.25972)"
       d="m 672.43321,924.43817 a 185.46602,171.67496 0 1 1 -370.93204,0 185.46602,171.67496 0 1 1 370.93204,0 z"
       sodipodi:ry="171.67496"
       sodipodi:rx="185.46602"
       sodipodi:cy="924.43817"
       sodipodi:cx="486.96719"
       id="path3865"
       style="fill:#c8c8c8;fill-opacity:1;stroke:#3c3c3c;stroke-width:22.1548996;stroke-linejoin:miter;stroke-miterlimit:4;stroke-opacity:1;stroke-dasharray:none;stroke-dashoffset:0"
       sodipodi:type="arc" />
    <path
       sodipodi:nodetypes="ccccccc"
       inkscape:connector-curvature="0"
       id="path3859"
       d="m 1123.23,903.46414 -62.7731,73.2353 62.7731,77.03976 0,-36.0917 -34.2399,-40.94806 34.2399,-39.14362 z"
       style="fill:#3c3c3c;fill-opacity:1;stroke:none" />
    <path
       sodipodi:type="arc"
       style="fill:#c8c8c8;fill-opacity:1;stroke:#3c3c3c;stroke-width:22.1548996;stroke-linejoin:miter;stroke-miterlimit:4;stroke-opacity:1;stroke-dasharray:none;stroke-dashoffset:0"
       id="path3868"
       sodipodi:cx="486.96719"
       sodipodi:cy="924.43817"
       sodipodi:rx="185.46602"
       sodipodi:ry="171.67496"
       d="m 672.43321,924.43817 a 185.46602,171.67496 0 1 1 -370.93204,0 185.46602,171.67496 0 1 1 370.93204,0 z"
       transform="matrix(-0.86852334,0,0,0.9382939,1954.6771,110.27423)"
       inkscape:export-filename="/Users/gam0022/Dropbox/cojt/shelf/misc/navi_right.png"
       inkscape:export-xdpi="16.870001"
       inkscape:export-ydpi="16.870001" />
    <path
       style="fill:#3c3c3c;fill-opacity:1;stroke:none"
       d="m 1508.7576,900.47865 62.7731,73.2353 -62.7731,77.03975 0,-36.0917 34.2399,-40.94805 -34.2399,-39.14362 z"
       id="path3870"
       inkscape:connector-curvature="0"
       sodipodi:nodetypes="ccccccc" />
    <path
       sodipodi:type="arc"
       style="fill:#f0f0f0;fill-opacity:1;stroke:#505050;stroke-width:22.15489960000000025;stroke-linejoin:miter;stroke-miterlimit:4;stroke-opacity:1;stroke-dasharray:none;stroke-dashoffset:0"
       id="path3872"
       sodipodi:cx="486.96719"
       sodipodi:cy="924.43817"
       sodipodi:rx="185.46602"
       sodipodi:ry="171.67496"
       d="m 672.43321,924.43817 a 185.46602,171.67496 0 1 1 -370.93204,0 185.46602,171.67496 0 1 1 370.93204,0 z"
       transform="matrix(0.86852334,0,0,0.9382939,700.35637,563.70207)"
       inkscape:export-filename="/Users/gam0022/Dropbox/cojt/shelf/misc/navi_left_fover.png"
       inkscape:export-xdpi="16.870001"
       inkscape:export-ydpi="16.870001" />
    <path
       style="fill:#505050;fill-opacity:1;stroke:none"
       d="m 1146.2759,1353.9065 -62.7731,73.2353 62.7731,77.0398 0,-36.0917 -34.2399,-40.9481 34.2399,-39.1436 z"
       id="path3874"
       inkscape:connector-curvature="0"
       sodipodi:nodetypes="ccccccc" />
    <path
       inkscape:export-ydpi="16.870001"
       inkscape:export-xdpi="16.870001"
       inkscape:export-filename="/Users/gam0022/Dropbox/cojt/shelf/misc/navi_right_fover.png"
       transform="matrix(-0.86852334,0,0,0.9382939,1977.723,560.71658)"
       d="m 672.43321,924.43817 a 185.46602,171.67496 0 1 1 -370.93204,0 185.46602,171.67496 0 1 1 370.93204,0 z"
       sodipodi:ry="171.67496"
       sodipodi:rx="185.46602"
       sodipodi:cy="924.43817"
       sodipodi:cx="486.96719"
       id="path3876"
       style="fill:#f0f0f0;fill-opacity:1;stroke:#505050;stroke-width:22.15489960000000025;stroke-linejoin:miter;stroke-miterlimit:4;stroke-opacity:1;stroke-dasharray:none;stroke-dashoffset:0"
       sodipodi:type="arc" />
    <path
       sodipodi:nodetypes="ccccccc"
       inkscape:connector-curvature="0"
       id="path3878"
       d="m 1531.8035,1350.921 62.7731,73.2353 -62.7731,77.0398 0,-36.0917 34.2399,-40.9481 -34.2399,-39.1436 z"
       style="fill:#505050;fill-opacity:1;stroke:none" />
  </g>
</svg>
